Coordinates
version=1
nRows=10
nColumns=40
inDegrees=yes

Units are S.I. units (second, meters, Newtons, ...)
If the header above contains a line with 'inDegrees', this indicates whether rotational values are in degrees (yes) or radians (no).

endheader
time	pelvis_tilt	pelvis_list	pelvis_rotation	pelvis_tx	pelvis_ty	pelvis_tz	hip_flexion_r	hip_adduction_r	hip_rotation_r	knee_angle_r	knee_angle_r_beta	ankle_angle_r	subtalar_angle_r	mtp_angle_r	hip_flexion_l	hip_adduction_l	hip_rotation_l	knee_angle_l	knee_angle_l_beta	ankle_angle_l	subtalar_angle_l	mtp_angle_l	lumbar_extension	lumbar_bending	lumbar_rotation	arm_flex_r	arm_add_r	arm_rot_r	elbow_flex_r	pro_sup_r	wrist_flex_r	wrist_dev_r	arm_flex_l	arm_add_l	arm_rot_l	elbow_flex_l	pro_sup_l	wrist_flex_l	wrist_dev_l
      2.45000000	     -3.38408034	      4.08390105	    -78.37172433	      0.20609265	      0.87381209	      0.70931892	      8.94810959	      7.19408636	    -17.40980594	     12.25941664	      0.21396718	     -0.43022025	      0.00000000	      0.00000000	     15.06692068	    -11.91247391	      0.96021608	     57.40685560	      1.00193864	     -9.72808370	      0.00000000	      0.00000000	     -1.51849501	      4.04761172	     -5.21335732	     -2.57724154	     -7.42343970	      1.56640177	     41.15981505	     89.10880888	    -22.77241761	      5.88285778	     -3.73358839	     -7.66233644	      3.86607318	     40.29709653	     89.28004191	    -21.05984433	      0.07069440
      2.46000000	     -3.35517857	      4.01360270	    -78.43436455	      0.20550747	      0.87382630	      0.71155146	      8.68219828	      7.27080310	    -17.33934209	     12.20061303	      0.21294087	     -0.32383086	      0.00000000	      0.00000000	     15.42211777	    -11.79982210	      1.17364744	     57.40568716	      1.00191825	     -8.64438436	      0.00000000	      0.00000000	     -1.56055874	      4.04556914	     -5.20405960	     -2.70810673	     -7.35770664	      1.72134417	     40.96892268	     89.10605160	    -22.70577246	      5.97445518	     -3.85506221	     -7.69253397	      3.82963878	     39.74253453	     89.26839186	    -21.10213780	      0.15381836
      2.47000000	     -3.31554489	      3.93149522	    -78.49778075	      0.20495610	      0.87386139	      0.71376366	      8.40463401	      7.33691784	    -17.26714804	     12.14743599	      0.21201275	     -0.21863264	      0.00000000	      0.00000000	     15.76966963	    -11.67468947	      1.38229149	     57.37269153	      1.00134237	     -7.68585362	      0.00000000	      0.00000000	     -1.61946457	      4.03642953	     -5.18873698	     -2.84606533	     -7.29059740	      1.86062412	     40.76448478	     89.10507195	    -22.65360788	      6.05977634	     -3.97261501	     -7.71307430	      3.77444643	     39.18068541	     89.26579683	    -21.15388963	      0.23820025
      2.48000000	     -3.27501139	      3.84611910	    -78.55368202	      0.20442829	      0.87390040	      0.71596837	      8.12812344	      7.39643082	    -17.20951167	     12.10056196	      0.21119465	     -0.11563132	      0.00000000	      0.00000000	     16.10765525	    -11.55270612	      1.57953435	     57.29357259	      0.99996148	     -6.72210337	      0.00000000	      0.00000000	     -1.68382785	      4.02177731	     -5.17729447	     -2.98644969	     -7.22926662	      2.01776216	     40.55731745	     89.10411709	    -22.60440621	      6.14653795	     -4.09660755	     -7.73640587	      3.73613854	     38.63739735	     89.26348203	    -21.21704101	      0.31937153
      2.49000000	     -3.22609494	      3.75169571	    -78.61728816	      0.20388975	      0.87395259	      0.71816848	      7.84727131	      7.45098869	    -17.14913603	     12.06875415	      0.21063950	     -0.01387660	      0.00000000	      0.00000000	     16.43880039	    -11.42881862	      1.76719679	     57.18136362	      0.99800307	     -5.88652069	      0.00000000	      0.00000000	     -1.76100287	      3.99484710	     -5.15444113	     -3.13708042	     -7.16319474	      2.16431460	     40.33918805	     89.10445943	    -22.56744668	      6.22665131	     -4.22291565	     -7.75700560	      3.68284245	     38.10727631	     89.26334684	    -21.28361925	      0.40196071
      2.50000000	     -3.16869055	      3.65892689	    -78.67818642	      0.20339952	      0.87401313	      0.72029687	      7.57293841	      7.48701183	    -17.09863366	     12.03844246	      0.21011046	      0.09367209	      0.00000000	      0.00000000	     16.76229923	    -11.29774038	      1.92039839	     57.02709053	      0.99531049	     -5.04898517	      0.00000000	      0.00000000	     -1.84928545	      3.96546300	     -5.13575687	     -3.27479819	     -7.10844626	      2.32848033	     40.11275528	     89.10493708	    -22.53549367	      6.30708863	     -4.34436510	     -7.77193406	      3.63898526	     37.59396010	     89.25956941	    -21.35905797	      0.48653483
      2.51000000	     -3.10868128	      3.55849986	    -78.74007555	      0.20289951	      0.87407121	      0.72245003	      7.29806029	      7.52212314	    -17.04207450	     12.03055686	      0.20997283	      0.19878067	      0.00000000	      0.00000000	     17.07870177	    -11.17389011	      2.05860331	     56.83375984	      0.99193624	     -4.32192928	      0.00000000	      0.00000000	     -1.94317482	      3.92022372	     -5.10192412	     -3.42993179	     -7.05127048	      2.48894368	     39.87404301	     89.10614079	    -22.51354464	      6.38340313	     -4.47414289	     -7.78488968	      3.58874602	     37.11607709	     89.25706698	    -21.43499570	      0.57067144
      2.52000000	     -3.02264641	      3.45190053	    -78.81357080	      0.20239886	      0.87414416	      0.72455076	      7.01820975	      7.52677065	    -16.99211938	     12.02676350	      0.20990662	      0.31375640	      0.00000000	      0.00000000	     17.37743490	    -11.03857558	      2.13818880	     56.61657386	      0.98814562	     -3.56307634	      0.00000000	      0.00000000	     -2.05815840	      3.85232762	     -5.06783875	     -3.56468798	     -7.00264055	      2.70181828	     39.61786504	     89.10471334	    -22.49897084	      6.46571303	     -4.60576194	     -7.80837524	      3.56587529	     36.66913398	     89.24131406	    -21.53586309	      0.65583153
      2.53000000	     -2.96152105	      3.35146529	    -78.88881895	      0.20190779	      0.87421067	      0.72663543	      6.76048329	      7.55534564	    -16.92691482	     12.04412733	      0.21020968	      0.42558369	      0.00000000	      0.00000000	     17.68232075	    -10.92169464	      2.23533777	     56.32197894	      0.98300397	     -3.01188342	      0.00000000	      0.00000000	     -2.16362554	      3.80758716	     -5.01804345	     -3.71206870	     -6.94791555	      2.84180576	     39.36453861	     89.10707621	    -22.49798096	      6.53255044	     -4.74140597	     -7.81222063	      3.49950802	     36.24851171	     89.24067106	    -21.61082437	      0.73950127
      2.54000000	     -2.86865815	      3.24691780	    -78.97453352	      0.20143126	      0.87427418	      0.72871562	      6.49227426	      7.54666820	    -16.86389704	     12.06128957	      0.21050922	      0.55418303	      0.00000000	      0.00000000	     17.97060361	    -10.78743562	      2.26753636	     56.00375732	      0.97744996	     -2.38102748	      0.00000000	      0.00000000	     -2.28437172	      3.72475706	     -4.96334385	     -3.84591299	     -6.89953935	      3.03084807	     39.07872282	     89.10816849	    -22.50150945	      6.60366860	     -4.87307295	     -7.82451018	      3.44751196	     35.84657793	     89.23485565	    -21.69217452	      0.82710070
